<svg fill="none" height="1410" viewBox="0 0 1396 1410" width="1396" xmlns="http://www.w3.org/2000/svg"><g fill="#64bdff"><path d="m.5.75h31v1409h-31z"/><path d="m62.5.75h31v1409h-31z"/><path d="m124.5.75h31v1409h-31z"/><path d="m186.5.75h31v1409h-31z"/><path d="m248.5.75h31v1409h-31z"/><path d="m310.5.75h31v1409h-31z"/><path d="m372.5.75h31v1409h-31z"/><path d="m434.5.75h31v1409h-31z"/><path d="m496.5.75h31v1409h-31z"/><path d="m558.5.75h31v1409h-31z"/><path d="m620.5.75h31v1409h-31z"/><path d="m682.5.75h31v1409h-31z"/><path d="m744.5.75h31v1409h-31z"/><path d="m806.5.75h31v1409h-31z"/><path d="m868.5.75h31v1409h-31z"/><path d="m930.5.75h31v1409h-31z"/><path d="m992.5.75h31v1409h-31z"/><path d="m1054.5.75h31v1409h-31z"/><path d="m1116.5.75h31v1409h-31z"/><path d="m1178.5.75h31v1409h-31z"/><path d="m1240.5.75h31v1409h-31z"/><path d="m1302.5.75h31v1409h-31z"/><path d="m1364.5.75h31v1409h-31z"/></g></svg>